<?xml version="1.0" encoding="UTF-8"?>
<svg width="49px" height="63px" viewBox="0 0 49 63" version="1.1" xmlns="http://www.w3.org/2000/svg" xmlns:xlink="http://www.w3.org/1999/xlink">
    <!-- Generator: Sketch 64 (93537) - https://sketch.com -->
    <title>booth</title>
    <desc>Created with Sketch.</desc>
    <g id="Symbols" stroke="none" stroke-width="1" fill="none" fill-rule="evenodd">
        <g id="Left-Menu-Item" transform="translate(-17.000000, -8.000000)" fill="#000000" fill-rule="nonzero">
            <g id="Group">
                <g id="booth" transform="translate(17.000000, 8.000000)">
                    <path d="M47.4687454,41.4880506 L44.4062363,41.4880506 L44.4062363,19.0542194 C46.7584391,18.4986492 48.3730781,16.3276902 48.2342994,13.9067393 L48.2342994,11.3713803 C48.2643413,11.0808015 48.2112918,10.7875757 48.0811593,10.5262607 L43.4108988,0.845839357 C43.1910805,0.322768086 42.674947,-0.0123681032 42.1092811,0.000349713161 L7.88590979,0.000349713161 C7.32815738,0.0120428698 6.81202391,0.2996806 6.50779533,0.768930087 L0.995190913,10.4494985 C0.798526768,10.7134605 0.715875071,11.0456556 0.765554017,11.3713803 L0.765554017,13.9067393 C0.626921915,16.3276902 2.24141437,18.4986492 4.59361719,19.0542194 L4.59361719,41.4880506 L1.53125458,41.4880506 C0.68554014,41.4880506 0,42.1759695 0,43.0246184 L0,61.4634322 C0,62.3120811 0.68554014,63 1.53125458,63 L47.4687454,63 C48.3144599,63 49,62.3120811 49,61.4634322 L49,43.0246184 C49,42.1759695 48.3144599,41.4880506 47.4687454,41.4880506 Z M45.1719368,13.9067393 C45.1719368,15.1359641 44.4828796,16.1347553 43.2579052,16.1347553 C42.0329309,16.1347553 41.3438736,15.1359641 41.3438736,13.9067393 L41.3438736,13.0616196 L45.1719368,13.0616196 L45.1719368,13.9067393 L45.1719368,13.9067393 Z M41.1140902,3.07385533 L44.4828796,9.98833696 L40.5016763,9.98833696 L37.5921607,3.07385533 L41.1140902,3.07385533 Z M17.8847135,20.3788823 C18.5047478,20.0062473 19.0585435,19.5325862 19.523386,18.9773101 C20.7565669,20.4519682 22.5814988,21.2972349 24.4999267,21.2820883 C26.41601,21.2864999 28.236692,20.443292 29.4764675,18.9773101 C30.7525862,20.4384392 32.5934916,21.2781179 34.5296516,21.2820883 C36.7912892,21.2778238 38.8843995,20.0816861 40.0421094,18.1321905 C40.4329464,18.4362983 40.8733158,18.6702613 41.3437271,18.8236386 L41.3437271,41.4879036 L35.907766,41.4879036 C34.3013336,36.5098297 29.7138713,33.1114105 24.4999267,33.0368541 C19.2859822,33.1114105 14.6985199,36.5099768 13.0920874,41.4879036 L7.6562729,41.4879036 L7.6562729,18.8237857 C8.12668415,18.6704083 8.56690702,18.4364453 8.95789058,18.1321905 C10.8046578,21.2263548 14.8013949,22.2322046 17.8847135,20.3788823 Z M11.4843361,14.7518589 L11.4843361,13.0616196 L17.6093544,13.0616196 L17.6093544,14.7518589 C17.6093544,16.6725319 16.38438,18.2090997 14.5468452,18.2090997 C12.7093104,18.2090997 11.4843361,16.6725319 11.4843361,14.7518589 Z M31.3906456,14.7518589 L31.3906456,13.0616196 L38.2812179,13.0616196 L38.2812179,14.7518589 C38.2812179,16.6612088 36.7386794,18.2090997 34.8359318,18.2090997 C32.9331842,18.2090997 31.3906456,16.6612088 31.3906456,14.7518589 Z M34.3000147,3.07385533 L37.2093837,9.98833696 L30.7015884,9.98833696 L28.9405504,3.07385533 L34.3000147,3.07385533 Z M23.1984556,3.07385533 L25.8015444,3.07385533 L27.4859391,9.98833696 L21.5140609,9.98833696 L23.1984556,3.07385533 Z M20.6718636,13.0616196 L27.5624359,13.0616196 L27.5624359,14.7518589 C27.5624359,16.6612088 26.0198973,18.2090997 24.1171497,18.2090997 C22.2144021,18.2090997 20.6718636,16.6612088 20.6718636,14.7518589 L20.6718636,13.0616196 L20.6718636,13.0616196 Z M20.0593031,3.07385533 L18.2984116,9.98833696 L12.0202532,9.98833696 L15.4655394,3.07385533 L20.0593031,3.07385533 Z M8.72810714,3.07385533 L12.0202532,3.07385533 L8.57496703,9.98833696 L4.74690385,9.98833696 L8.72810714,3.07385533 Z M3.82806318,13.9067393 L3.82806318,13.0616196 L7.65612635,13.0616196 L7.65612635,13.9067393 C7.65612635,15.1359641 6.96706912,16.1347553 5.74209476,16.1347553 C4.51712041,16.1347553 3.82806318,15.1359641 3.82806318,13.9067393 Z M45.9374908,59.9268644 L3.06250916,59.9268644 L3.06250916,44.5611863 L14.2407116,44.5611863 C14.9751979,44.5325107 15.5857067,43.9844403 15.6954693,43.2550521 C16.6931515,39.1562145 20.2971465,36.2316035 24.5002198,36.1099898 C28.7355331,36.213957 32.3607772,39.187537 33.3049703,43.3318144 C33.4468264,44.0306152 34.0492752,44.5397164 34.7597281,44.5610392 L45.9379305,44.5610392 L45.9379305,59.9268644 L45.9374908,59.9268644 Z" id="Shape"></path>
                    <path d="M29.7125894,42.1657301 L26.6599549,41.7028219 L25.3197601,38.9256686 C25.0866083,38.3718031 24.5627295,38.0098931 23.9795652,38 C23.4019589,38.028055 22.8864883,38.3842064 22.6393703,38.9256686 L21.2991755,41.7028219 L18.246541,42.1657301 C17.7029954,42.3026091 17.258354,42.7057157 17.0552725,43.2457013 C16.9119042,43.8162522 17.0514247,44.4232746 17.4275172,44.8656582 L19.6611278,47.0257485 L19.1399568,50.1885848 C18.997301,50.7603169 19.2411412,51.3603994 19.7356623,51.6543866 C19.9571279,51.8679002 20.2525579,51.9792344 20.5546861,51.962992 C20.8120651,51.9870603 21.0705842,51.9334604 21.2991755,51.8086893 L23.9795652,50.3428875 L26.7344894,51.8086893 C27.2332859,52.1122744 27.8636221,52.0499626 28.2980026,51.6543866 C28.7430715,51.3175785 28.9720904,50.7538199 28.8937081,50.1885848 L28.372537,47.0257485 L30.5317557,44.8656582 C30.9685589,44.4582696 31.1167727,43.813299 30.9040004,43.2457013 C30.7250037,42.6885874 30.2692462,42.27544 29.7125894,42.1657301 Z M25.6920048,45.4057915 C25.3271708,45.7613522 25.1592901,46.2831759 25.2452256,46.7943682 L25.394152,47.6429593 L24.6496626,47.2572763 C24.2526206,46.9486709 23.7065098,46.9486709 23.3094678,47.2572763 L22.5649784,47.6429593 L22.7139048,46.7943682 C22.7998403,46.2831759 22.6319596,45.7613522 22.2671256,45.4057915 L21.6714201,44.7885807 L22.4904439,44.7885807 C22.9799771,44.726712 23.4032415,44.4052603 23.6073205,43.9399897 L23.9795652,43.1686238 L24.3518099,43.9399897 C24.5762683,44.3875413 24.9891293,44.7013148 25.4686864,44.7885807 L26.2877103,44.7885807 L25.6920048,45.4057915 Z" id="Shape"></path>
                </g>
            </g>
        </g>
    </g>
</svg>